<?xml version="1.0" encoding="UTF-8"?>
<svg xmlns="http://www.w3.org/2000/svg" xmlns:xlink="http://www.w3.org/1999/xlink" width="144px" height="62px" viewBox="0 0 144 62" version="1.1">
<g id="surface1">
<path style=" stroke:none;fill-rule:evenodd;fill:rgb(99.607843%,100%,99.607843%);fill-opacity:1;" d="M 28.070312 -0.0429688 C 29.929688 -0.0429688 31.785156 -0.0429688 33.644531 -0.0429688 C 43 0.988281 50.5 5.257812 56.144531 12.769531 C 61.710938 20.960938 63.253906 29.875 60.769531 39.511719 C 57.710938 49.40625 51.382812 56.269531 41.785156 60.109375 C 39.132812 61.050781 36.417969 61.667969 33.644531 61.957031 C 31.785156 61.957031 29.929688 61.957031 28.070312 61.957031 C 18.226562 60.855469 10.496094 56.238281 4.886719 48.113281 C 2.199219 43.960938 0.554688 39.433594 -0.0429688 34.527344 C -0.0429688 32.148438 -0.0429688 29.765625 -0.0429688 27.386719 C 1.277344 17.753906 5.933594 10.230469 13.929688 4.816406 C 18.261719 2.070312 22.976562 0.453125 28.070312 -0.0429688 Z M 29.269531 3.914062 C 29.8125 3.914062 30.355469 3.914062 30.898438 3.914062 C 30.914062 5.433594 30.898438 6.953125 30.855469 8.46875 C 28.792969 8.257812 26.722656 8.242188 24.644531 8.425781 C 23.433594 8.539062 22.507812 9.097656 21.855469 10.105469 C 21.355469 11.230469 20.910156 12.375 20.527344 13.542969 C 20.644531 13.558594 20.761719 13.542969 20.871094 13.5 C 22.597656 12.105469 24.570312 11.359375 26.785156 11.265625 C 25.019531 11.992188 23.648438 13.183594 22.671875 14.832031 C 23.441406 14.898438 24.214844 14.957031 24.984375 15.003906 C 25.355469 15.0625 25.699219 15.191406 26.015625 15.390625 C 24.589844 15.558594 23.160156 15.699219 21.730469 15.824219 C 21.09375 15.898438 20.464844 16.015625 19.84375 16.167969 C 18.890625 16.570312 18.292969 17.273438 18.042969 18.273438 C 20.75 18.226562 23.4375 18.441406 26.101562 18.917969 C 26.644531 19.03125 27.128906 19.261719 27.558594 19.605469 C 21.816406 19.953125 16.070312 20.296875 10.328125 20.636719 C 10.019531 20.855469 9.992188 21.113281 10.242188 21.410156 C 12.269531 21.699219 14.28125 22.03125 16.285156 22.402344 C 16.640625 23.296875 17.027344 24.171875 17.441406 25.023438 C 16.371094 26.730469 15.300781 28.433594 14.230469 30.140625 C 14.105469 30.359375 14.078125 30.585938 14.144531 30.828125 C 15.667969 30.890625 17.195312 30.949219 18.730469 31 C 18.390625 30.515625 18.046875 30.03125 17.699219 29.539062 C 18.125 28.308594 18.539062 27.074219 18.941406 25.839844 C 18.972656 25.71875 19.046875 25.632812 19.15625 25.582031 C 22.085938 26.539062 25.011719 27.484375 27.941406 28.421875 C 27.5 29.96875 27.027344 31.519531 26.527344 33.0625 C 25.265625 32.703125 24.007812 32.316406 22.757812 31.902344 C 22.644531 31.84375 22.527344 31.84375 22.414062 31.902344 C 21.566406 34.546875 20.738281 37.195312 19.929688 39.855469 C 17.3125 40.59375 14.710938 41.367188 12.128906 42.179688 C 13.050781 42.65625 13.964844 43.160156 14.871094 43.683594 C 17.125 44.988281 18.984375 46.722656 20.441406 48.886719 C 19.582031 49.933594 18.742188 50.996094 17.914062 52.066406 C 17.628906 52.496094 17.414062 52.953125 17.269531 53.445312 C 17.457031 53.453125 17.628906 53.410156 17.785156 53.316406 C 24.183594 49.042969 31.183594 46.234375 38.785156 44.886719 C 40.300781 44.726562 41.816406 44.566406 43.328125 44.414062 C 43.558594 41.4375 43.726562 38.457031 43.84375 35.472656 C 40.648438 35.945312 37.449219 36.359375 34.242188 36.71875 C 36.617188 35.519531 39.132812 34.773438 41.785156 34.484375 C 42.695312 31.957031 43.582031 29.421875 44.441406 26.871094 C 46.671875 26.808594 48.871094 26.5625 51.042969 26.140625 C 50.421875 26.761719 49.679688 27.164062 48.8125 27.34375 C 47.679688 27.589844 46.535156 27.773438 45.386719 27.90625 C 44.660156 29.984375 43.972656 32.078125 43.328125 34.183594 C 43.871094 34.175781 44.414062 34.148438 44.957031 34.09375 C 44.785156 38 44.574219 41.898438 44.3125 45.789062 C 39.84375 48.613281 35.371094 51.4375 30.898438 54.261719 C 30.890625 55.5 30.890625 56.746094 30.898438 58 C 21.832031 57.738281 14.558594 54.011719 9.085938 46.824219 C 3.957031 39.332031 2.699219 31.222656 5.3125 22.488281 C 8.746094 13.050781 15.304688 7.074219 24.984375 4.558594 C 26.414062 4.257812 27.84375 4.042969 29.269531 3.914062 Z M 45.386719 14.660156 C 45.71875 14.9375 46.046875 15.222656 46.371094 15.523438 C 46.363281 18.046875 46.292969 20.566406 46.15625 23.089844 C 44.300781 22.679688 42.441406 22.261719 40.585938 21.84375 C 40.355469 21.667969 40.355469 21.496094 40.585938 21.324219 C 42.128906 21.28125 43.671875 21.269531 45.214844 21.28125 C 45.257812 19.074219 45.316406 16.867188 45.386719 14.660156 Z M 45.386719 14.660156 "/>
<path style=" stroke:none;fill-rule:evenodd;fill:rgb(99.607843%,100%,99.607843%);fill-opacity:1;" d="M 75.300781 8.726562 C 77.574219 8.5 79.714844 8.914062 81.730469 9.976562 C 83.953125 11.617188 85.109375 13.839844 85.199219 16.640625 C 85.242188 18.332031 85.257812 20.023438 85.242188 21.714844 C 83.328125 21.714844 81.414062 21.714844 79.5 21.714844 C 79.515625 20.164062 79.5 18.617188 79.457031 17.070312 C 79.175781 14.636719 77.84375 13.734375 75.472656 14.359375 C 74.453125 14.921875 73.925781 15.796875 73.886719 16.984375 C 73.828125 24.035156 73.828125 31.085938 73.886719 38.136719 C 74.0625 40.234375 75.191406 41.164062 77.269531 40.933594 C 78.324219 40.734375 78.996094 40.121094 79.285156 39.082031 C 79.371094 38.746094 79.429688 38.398438 79.457031 38.050781 C 79.5 36.101562 79.515625 34.152344 79.5 32.203125 C 81.414062 32.203125 83.328125 32.203125 85.242188 32.203125 C 85.257812 34.296875 85.242188 36.390625 85.199219 38.480469 C 84.722656 43.789062 81.824219 46.453125 76.5 46.476562 C 71.058594 46.421875 68.160156 43.671875 67.800781 38.222656 C 67.742188 31.144531 67.742188 24.0625 67.800781 16.984375 C 68.007812 12.089844 70.507812 9.339844 75.300781 8.726562 Z M 75.300781 8.726562 "/>
<path style=" stroke:none;fill-rule:evenodd;fill:rgb(99.607843%,100%,99.607843%);fill-opacity:1;" d="M 113.101562 8.726562 C 115.421875 8.484375 117.589844 8.929688 119.613281 10.0625 C 121.035156 11.085938 121.992188 12.449219 122.484375 14.144531 C 122.910156 15.839844 123.066406 17.558594 122.957031 19.304688 C 121.042969 19.304688 119.128906 19.304688 117.214844 19.304688 C 117.230469 18.503906 117.214844 17.699219 117.171875 16.898438 C 116.933594 14.738281 115.746094 13.863281 113.613281 14.273438 C 112.566406 14.664062 111.980469 15.425781 111.855469 16.554688 C 111.601562 18.707031 112.144531 20.625 113.484375 22.316406 C 114.785156 23.808594 116.199219 25.199219 117.730469 26.484375 C 119.074219 27.75 120.261719 29.140625 121.285156 30.65625 C 122.816406 33.296875 123.359375 36.136719 122.914062 39.167969 C 122.140625 44.058594 119.269531 46.496094 114.300781 46.476562 C 108.976562 46.453125 106.078125 43.789062 105.601562 38.480469 C 105.558594 37.25 105.542969 36.015625 105.558594 34.785156 C 107.472656 34.785156 109.386719 34.785156 111.300781 34.785156 C 111.285156 35.902344 111.300781 37.019531 111.34375 38.136719 C 111.617188 40.375 112.859375 41.277344 115.070312 40.847656 C 115.949219 40.566406 116.507812 39.980469 116.742188 39.082031 C 117.148438 37.265625 116.890625 35.542969 115.972656 33.921875 C 115.25 32.800781 114.40625 31.78125 113.441406 30.871094 C 111.632812 29.367188 109.960938 27.722656 108.429688 25.925781 C 106.257812 23.121094 105.375 19.941406 105.769531 16.382812 C 106.175781 11.832031 108.621094 9.28125 113.101562 8.726562 Z M 113.101562 8.726562 "/>
<path style=" stroke:none;fill-rule:evenodd;fill:rgb(99.607843%,100%,99.607843%);fill-opacity:1;" d="M 88.414062 9.15625 C 93.613281 9.15625 98.8125 9.15625 104.015625 9.15625 C 104.015625 10.964844 104.015625 12.769531 104.015625 14.574219 C 100.84375 14.574219 97.671875 14.574219 94.5 14.574219 C 94.5 18.214844 94.5 21.855469 94.5 25.496094 C 96.984375 25.496094 99.472656 25.496094 101.957031 25.496094 C 101.957031 27.273438 101.957031 29.050781 101.957031 30.828125 C 99.472656 30.828125 96.984375 30.828125 94.5 30.828125 C 94.5 35.902344 94.5 40.976562 94.5 46.046875 C 92.472656 46.046875 90.441406 46.046875 88.414062 46.046875 C 88.414062 33.75 88.414062 21.453125 88.414062 9.15625 Z M 88.414062 9.15625 "/>
<path style=" stroke:none;fill-rule:evenodd;fill:rgb(99.607843%,100%,99.607843%);fill-opacity:1;" d="M 143.957031 31.6875 C 143.957031 34.355469 143.957031 37.019531 143.957031 39.683594 C 143.25 43.128906 141.164062 45.179688 137.699219 45.832031 C 137.101562 45.917969 136.503906 45.976562 135.898438 46.003906 C 132.613281 46.046875 129.328125 46.0625 126.042969 46.046875 C 126.042969 33.75 126.042969 21.453125 126.042969 9.15625 C 129.730469 9.117188 133.417969 9.160156 137.101562 9.285156 C 140.765625 9.726562 142.863281 11.777344 143.398438 15.433594 C 143.570312 17.355469 143.570312 19.277344 143.398438 21.195312 C 143.136719 23.472656 142.039062 25.195312 140.101562 26.355469 C 142.308594 27.460938 143.59375 29.238281 143.957031 31.6875 Z M 132.128906 14.574219 C 133.1875 14.5625 134.242188 14.574219 135.300781 14.617188 C 136.441406 14.859375 137.113281 15.5625 137.3125 16.726562 C 137.449219 18.210938 137.476562 19.703125 137.398438 21.195312 C 137.328125 22.703125 136.570312 23.632812 135.128906 23.992188 C 134.132812 24.105469 133.132812 24.148438 132.128906 24.121094 C 132.128906 20.9375 132.128906 17.757812 132.128906 14.574219 Z M 132.128906 29.453125 C 133.484375 29.390625 134.828125 29.492188 136.15625 29.753906 C 137.199219 30.226562 137.785156 31.042969 137.914062 32.203125 C 138.085938 34.296875 138.085938 36.390625 137.914062 38.480469 C 137.648438 39.722656 136.894531 40.421875 135.644531 40.589844 C 134.472656 40.632812 133.300781 40.644531 132.128906 40.632812 C 132.128906 36.90625 132.128906 33.179688 132.128906 29.453125 Z M 132.128906 29.453125 "/>
<path style=" stroke:none;fill-rule:evenodd;fill:rgb(99.607843%,100%,99.607843%);fill-opacity:1;" d="M 15.730469 33.578125 C 16.871094 33.730469 17.984375 34.003906 19.070312 34.398438 C 19.257812 34.507812 19.285156 34.652344 19.15625 34.828125 C 17.984375 34.871094 16.816406 34.882812 15.644531 34.871094 C 15.691406 34.441406 15.71875 34.011719 15.730469 33.578125 Z M 15.730469 33.578125 "/>
<path style=" stroke:none;fill-rule:evenodd;fill:rgb(99.607843%,100%,99.607843%);fill-opacity:1;" d="M 87.042969 49.144531 C 88.863281 48.976562 89.707031 49.808594 89.570312 51.636719 C 89.34375 52.675781 88.699219 53.191406 87.644531 53.1875 C 86.347656 53.175781 85.660156 52.515625 85.585938 51.207031 C 85.613281 50.171875 86.097656 49.484375 87.042969 49.144531 Z M 87.386719 50.003906 C 87.886719 49.976562 88.21875 50.207031 88.371094 50.691406 C 88.515625 51.273438 88.386719 51.777344 87.984375 52.195312 C 87.414062 52.421875 87.03125 52.234375 86.828125 51.636719 C 86.636719 50.949219 86.824219 50.40625 87.386719 50.003906 Z M 87.386719 50.003906 "/>
<path style=" stroke:none;fill-rule:evenodd;fill:rgb(99.607843%,100%,99.607843%);fill-opacity:1;" d="M 129.472656 50.089844 C 129.511719 50.289062 129.542969 50.488281 129.558594 50.691406 C 129.1875 50.644531 128.816406 50.601562 128.441406 50.5625 C 128.058594 49.882812 127.613281 49.839844 127.113281 50.433594 C 126.855469 50.925781 126.855469 51.414062 127.113281 51.894531 C 127.757812 52.550781 128.199219 52.433594 128.441406 51.550781 C 128.8125 51.550781 129.1875 51.550781 129.558594 51.550781 C 129.5625 52.390625 129.160156 52.921875 128.355469 53.144531 C 126.335938 53.292969 125.519531 52.359375 125.914062 50.347656 C 126.136719 49.753906 126.550781 49.367188 127.15625 49.1875 C 128.160156 48.945312 128.933594 49.246094 129.472656 50.089844 Z M 129.472656 50.089844 "/>
<path style=" stroke:none;fill-rule:evenodd;fill:rgb(99.607843%,100%,99.607843%);fill-opacity:1;" d="M 67.757812 49.230469 C 68.128906 49.230469 68.5 49.230469 68.871094 49.230469 C 68.855469 49.632812 68.871094 50.035156 68.914062 50.433594 C 69.238281 50.019531 69.597656 49.632812 69.984375 49.273438 C 70.441406 49.230469 70.898438 49.214844 71.355469 49.230469 C 71.371094 49.320312 71.355469 49.40625 71.3125 49.488281 C 70.785156 49.90625 70.3125 50.378906 69.898438 50.90625 C 70.394531 51.605469 70.921875 52.277344 71.484375 52.929688 C 71.527344 51.695312 71.542969 50.464844 71.527344 49.230469 C 72.300781 49.214844 73.070312 49.230469 73.84375 49.273438 C 74.636719 49.507812 74.9375 50.039062 74.742188 50.863281 C 74.683594 51.171875 74.527344 51.414062 74.269531 51.59375 C 73.742188 51.765625 73.199219 51.839844 72.644531 51.808594 C 72.644531 52.238281 72.644531 52.667969 72.644531 53.101562 C 71.8125 53.113281 70.984375 53.101562 70.15625 53.058594 C 69.761719 52.59375 69.375 52.117188 69 51.636719 C 68.875 52.109375 68.832031 52.597656 68.871094 53.101562 C 68.5 53.101562 68.128906 53.101562 67.757812 53.101562 C 67.757812 51.808594 67.757812 50.519531 67.757812 49.230469 Z M 72.644531 50.003906 C 72.9375 49.988281 73.222656 50.03125 73.5 50.132812 C 73.75 50.421875 73.71875 50.679688 73.414062 50.90625 C 73.160156 50.949219 72.902344 50.964844 72.644531 50.949219 C 72.644531 50.632812 72.644531 50.320312 72.644531 50.003906 Z M 72.644531 50.003906 "/>
<path style=" stroke:none;fill-rule:evenodd;fill:rgb(99.607843%,100%,99.607843%);fill-opacity:1;" d="M 74.957031 49.230469 C 75.328125 49.230469 75.699219 49.230469 76.070312 49.230469 C 76.058594 49.890625 76.070312 50.550781 76.113281 51.207031 C 76.472656 50.5625 76.828125 49.917969 77.1875 49.273438 C 77.613281 49.230469 78.042969 49.214844 78.472656 49.230469 C 78.472656 50.519531 78.472656 51.808594 78.472656 53.101562 C 78.070312 53.101562 77.671875 53.101562 77.269531 53.101562 C 77.285156 52.46875 77.269531 51.839844 77.230469 51.207031 C 76.898438 51.808594 76.570312 52.410156 76.242188 53.015625 C 75.816406 53.097656 75.390625 53.128906 74.957031 53.101562 C 74.957031 51.808594 74.957031 50.519531 74.957031 49.230469 Z M 74.957031 49.230469 "/>
<path style=" stroke:none;fill-rule:evenodd;fill:rgb(99.607843%,100%,99.607843%);fill-opacity:1;" d="M 78.8125 49.230469 C 79.957031 49.230469 81.101562 49.230469 82.242188 49.230469 C 82.242188 50.519531 82.242188 51.808594 82.242188 53.101562 C 81.871094 53.101562 81.5 53.101562 81.128906 53.101562 C 81.128906 52.097656 81.128906 51.09375 81.128906 50.089844 C 80.730469 50.089844 80.328125 50.089844 79.929688 50.089844 C 79.929688 51.09375 79.929688 52.097656 79.929688 53.101562 C 79.558594 53.101562 79.1875 53.101562 78.8125 53.101562 C 78.8125 51.808594 78.8125 50.519531 78.8125 49.230469 Z M 78.8125 49.230469 "/>
<path style=" stroke:none;fill-rule:evenodd;fill:rgb(99.607843%,100%,99.607843%);fill-opacity:1;" d="M 82.328125 49.230469 C 83.441406 49.230469 84.558594 49.230469 85.671875 49.230469 C 85.671875 49.515625 85.671875 49.804688 85.671875 50.089844 C 85.300781 50.089844 84.929688 50.089844 84.558594 50.089844 C 84.558594 51.09375 84.558594 52.097656 84.558594 53.101562 C 84.1875 53.101562 83.8125 53.101562 83.441406 53.101562 C 83.441406 52.097656 83.441406 51.09375 83.441406 50.089844 C 83.070312 50.089844 82.699219 50.089844 82.328125 50.089844 C 82.328125 49.804688 82.328125 49.515625 82.328125 49.230469 Z M 82.328125 49.230469 "/>
<path style=" stroke:none;fill-rule:evenodd;fill:rgb(99.607843%,100%,99.607843%);fill-opacity:1;" d="M 91.242188 49.230469 C 91.613281 49.230469 91.984375 49.230469 92.355469 49.230469 C 92.34375 49.605469 92.355469 49.976562 92.398438 50.347656 C 92.757812 49.988281 93.113281 49.632812 93.472656 49.273438 C 93.925781 49.230469 94.386719 49.214844 94.84375 49.230469 C 94.382812 49.820312 93.871094 50.378906 93.300781 50.90625 C 93.855469 51.582031 94.414062 52.253906 94.972656 52.929688 C 95.015625 51.695312 95.027344 50.464844 95.015625 49.230469 C 95.785156 49.214844 96.558594 49.230469 97.328125 49.273438 C 98.140625 49.535156 98.441406 50.09375 98.230469 50.949219 C 98.136719 51.214844 97.980469 51.429688 97.757812 51.59375 C 97.230469 51.765625 96.6875 51.839844 96.128906 51.808594 C 96.128906 52.238281 96.128906 52.667969 96.128906 53.101562 C 95.300781 53.113281 94.472656 53.101562 93.644531 53.058594 C 93.246094 52.59375 92.859375 52.117188 92.484375 51.636719 C 92.363281 52.109375 92.320312 52.597656 92.355469 53.101562 C 91.984375 53.101562 91.613281 53.101562 91.242188 53.101562 C 91.242188 51.808594 91.242188 50.519531 91.242188 49.230469 Z M 96.128906 50.003906 C 96.421875 49.988281 96.707031 50.03125 96.984375 50.132812 C 97.234375 50.421875 97.207031 50.679688 96.898438 50.90625 C 96.644531 50.949219 96.386719 50.964844 96.128906 50.949219 C 96.128906 50.632812 96.128906 50.320312 96.128906 50.003906 Z M 96.128906 50.003906 "/>
<path style=" stroke:none;fill-rule:evenodd;fill:rgb(99.607843%,100%,99.607843%);fill-opacity:1;" d="M 98.441406 49.230469 C 98.8125 49.230469 99.1875 49.230469 99.558594 49.230469 C 99.542969 49.890625 99.558594 50.550781 99.601562 51.207031 C 99.945312 50.554688 100.304688 49.910156 100.671875 49.273438 C 101.097656 49.230469 101.527344 49.214844 101.957031 49.230469 C 101.957031 50.519531 101.957031 51.808594 101.957031 53.101562 C 101.558594 53.101562 101.15625 53.101562 100.757812 53.101562 C 100.773438 52.46875 100.757812 51.839844 100.714844 51.207031 C 100.386719 51.808594 100.058594 52.410156 99.730469 53.015625 C 99.304688 53.097656 98.875 53.128906 98.441406 53.101562 C 98.441406 51.808594 98.441406 50.519531 98.441406 49.230469 Z M 98.441406 49.230469 "/>
<path style=" stroke:none;fill-rule:evenodd;fill:rgb(99.607843%,100%,99.607843%);fill-opacity:1;" d="M 102.300781 49.230469 C 102.785156 49.214844 103.273438 49.230469 103.757812 49.273438 C 104 49.945312 104.242188 50.617188 104.484375 51.292969 C 104.707031 50.636719 104.921875 49.976562 105.128906 49.316406 C 105.609375 49.230469 106.097656 49.203125 106.585938 49.230469 C 106.585938 50.519531 106.585938 51.808594 106.585938 53.101562 C 106.242188 53.101562 105.898438 53.101562 105.558594 53.101562 C 105.570312 52.554688 105.558594 52.011719 105.515625 51.464844 C 105.320312 51.980469 105.132812 52.496094 104.957031 53.015625 C 104.617188 53.097656 104.277344 53.128906 103.929688 53.101562 C 103.824219 52.570312 103.667969 52.054688 103.457031 51.550781 C 103.414062 52.066406 103.398438 52.582031 103.414062 53.101562 C 103.042969 53.101562 102.671875 53.101562 102.300781 53.101562 C 102.300781 51.808594 102.300781 50.519531 102.300781 49.230469 Z M 102.300781 49.230469 "/>
<path style=" stroke:none;fill-rule:evenodd;fill:rgb(99.607843%,100%,99.607843%);fill-opacity:1;" d="M 107.015625 49.230469 C 107.386719 49.230469 107.757812 49.230469 108.128906 49.230469 C 108.113281 49.890625 108.128906 50.550781 108.171875 51.207031 C 108.519531 50.554688 108.875 49.910156 109.242188 49.273438 C 109.640625 49.230469 110.042969 49.214844 110.441406 49.230469 C 110.441406 50.519531 110.441406 51.808594 110.441406 53.101562 C 110.070312 53.101562 109.699219 53.101562 109.328125 53.101562 C 109.34375 52.46875 109.328125 51.839844 109.285156 51.207031 C 108.957031 51.808594 108.628906 52.410156 108.300781 53.015625 C 107.875 53.097656 107.445312 53.128906 107.015625 53.101562 C 107.015625 51.808594 107.015625 50.519531 107.015625 49.230469 Z M 107.015625 49.230469 "/>
<path style=" stroke:none;fill-rule:evenodd;fill:rgb(99.607843%,100%,99.607843%);fill-opacity:1;" d="M 110.871094 49.230469 C 111.242188 49.230469 111.613281 49.230469 111.984375 49.230469 C 111.984375 49.71875 111.984375 50.203125 111.984375 50.691406 C 112.386719 50.691406 112.785156 50.691406 113.1875 50.691406 C 113.1875 50.203125 113.1875 49.71875 113.1875 49.230469 C 113.558594 49.230469 113.929688 49.230469 114.300781 49.230469 C 114.285156 50.433594 114.300781 51.636719 114.34375 52.84375 C 114.8125 51.644531 115.253906 50.441406 115.671875 49.230469 C 116.074219 49.203125 116.476562 49.230469 116.871094 49.316406 C 117.269531 50.246094 117.628906 51.191406 117.941406 52.152344 C 118.351562 52.261719 118.582031 52.089844 118.628906 51.636719 C 118.707031 50.835938 118.75 50.035156 118.757812 49.230469 C 119.757812 49.230469 120.757812 49.230469 121.757812 49.230469 C 121.757812 50.519531 121.757812 51.808594 121.757812 53.101562 C 121.355469 53.101562 120.957031 53.101562 120.558594 53.101562 C 120.558594 52.097656 120.558594 51.09375 120.558594 50.089844 C 120.304688 50.066406 120.0625 50.09375 119.828125 50.175781 C 119.824219 50.960938 119.738281 51.734375 119.570312 52.496094 C 119.359375 52.957031 119 53.183594 118.5 53.1875 C 118.015625 53.113281 117.53125 53.082031 117.042969 53.101562 C 117 52.835938 116.925781 52.578125 116.828125 52.324219 C 116.457031 52.210938 116.085938 52.210938 115.714844 52.324219 C 115.617188 52.578125 115.542969 52.835938 115.5 53.101562 C 114.730469 53.101562 113.957031 53.101562 113.1875 53.101562 C 113.1875 52.554688 113.1875 52.011719 113.1875 51.464844 C 112.785156 51.464844 112.386719 51.464844 111.984375 51.464844 C 111.984375 52.011719 111.984375 52.554688 111.984375 53.101562 C 111.613281 53.101562 111.242188 53.101562 110.871094 53.101562 C 110.871094 51.808594 110.871094 50.519531 110.871094 49.230469 Z M 116.269531 50.777344 C 116.382812 50.988281 116.46875 51.21875 116.527344 51.464844 C 116.355469 51.582031 116.1875 51.582031 116.015625 51.464844 C 116.101562 51.234375 116.1875 51.003906 116.269531 50.777344 Z M 116.269531 50.777344 "/>
<path style=" stroke:none;fill-rule:evenodd;fill:rgb(99.607843%,100%,99.607843%);fill-opacity:1;" d="M 122.101562 49.230469 C 122.472656 49.230469 122.84375 49.230469 123.214844 49.230469 C 123.199219 49.890625 123.214844 50.550781 123.257812 51.207031 C 123.601562 50.554688 123.960938 49.910156 124.328125 49.273438 C 124.757812 49.230469 125.183594 49.214844 125.613281 49.230469 C 125.613281 50.519531 125.613281 51.808594 125.613281 53.101562 C 125.214844 53.101562 124.816406 53.101562 124.414062 53.101562 C 124.429688 52.46875 124.414062 51.839844 124.371094 51.207031 C 124.042969 51.808594 123.714844 52.410156 123.386719 53.015625 C 122.960938 53.097656 122.53125 53.128906 122.101562 53.101562 C 122.101562 51.808594 122.101562 50.519531 122.101562 49.230469 Z M 122.101562 49.230469 "/>
<path style=" stroke:none;fill-rule:evenodd;fill:rgb(99.607843%,100%,99.607843%);fill-opacity:1;" d="M 129.472656 50.089844 C 129.472656 49.804688 129.472656 49.515625 129.472656 49.230469 C 130.613281 49.230469 131.757812 49.230469 132.898438 49.230469 C 132.898438 49.515625 132.898438 49.804688 132.898438 50.089844 C 132.527344 50.089844 132.15625 50.089844 131.785156 50.089844 C 131.785156 51.09375 131.785156 52.097656 131.785156 53.101562 C 131.386719 53.101562 130.984375 53.101562 130.585938 53.101562 C 130.585938 52.097656 130.585938 51.09375 130.585938 50.089844 C 130.214844 50.089844 129.84375 50.089844 129.472656 50.089844 Z M 129.472656 50.089844 "/>
<path style=" stroke:none;fill-rule:evenodd;fill:rgb(99.607843%,100%,99.607843%);fill-opacity:1;" d="M 132.984375 49.230469 C 133.355469 49.230469 133.730469 49.230469 134.101562 49.230469 C 134.085938 49.890625 134.101562 50.550781 134.144531 51.207031 C 134.488281 50.554688 134.847656 49.910156 135.214844 49.273438 C 135.613281 49.230469 136.011719 49.214844 136.414062 49.230469 C 136.414062 50.519531 136.414062 51.808594 136.414062 53.101562 C 136.042969 53.101562 135.671875 53.101562 135.300781 53.101562 C 135.316406 52.441406 135.300781 51.78125 135.257812 51.121094 C 134.910156 51.742188 134.582031 52.371094 134.269531 53.015625 C 133.847656 53.097656 133.417969 53.128906 132.984375 53.101562 C 132.984375 51.808594 132.984375 50.519531 132.984375 49.230469 Z M 132.984375 49.230469 "/>
<path style=" stroke:none;fill-rule:evenodd;fill:rgb(99.607843%,100%,99.607843%);fill-opacity:1;" d="M 143.957031 52.410156 C 143.957031 52.640625 143.957031 52.871094 143.957031 53.101562 C 143.609375 53.128906 143.265625 53.097656 142.929688 53.015625 C 142.84375 52.785156 142.757812 52.554688 142.671875 52.324219 C 142.332031 52.226562 141.988281 52.210938 141.644531 52.28125 C 141.546875 52.546875 141.429688 52.804688 141.300781 53.058594 C 140.585938 53.128906 139.871094 53.113281 139.15625 53.015625 C 138.785156 52.566406 138.425781 52.109375 138.085938 51.636719 C 137.960938 52.109375 137.917969 52.597656 137.957031 53.101562 C 137.585938 53.101562 137.214844 53.101562 136.84375 53.101562 C 136.84375 51.808594 136.84375 50.519531 136.84375 49.230469 C 137.214844 49.230469 137.585938 49.230469 137.957031 49.230469 C 137.941406 49.605469 137.957031 49.976562 138 50.347656 C 138.359375 49.988281 138.714844 49.632812 139.070312 49.273438 C 139.53125 49.203125 139.988281 49.214844 140.441406 49.316406 C 139.945312 49.859375 139.429688 50.390625 138.898438 50.90625 C 139.339844 51.476562 139.796875 52.039062 140.269531 52.582031 C 140.734375 51.511719 141.160156 50.421875 141.558594 49.316406 C 141.957031 49.203125 142.355469 49.203125 142.757812 49.316406 C 143.144531 50.363281 143.542969 51.394531 143.957031 52.410156 Z M 142.070312 50.777344 C 142.234375 50.972656 142.347656 51.203125 142.414062 51.464844 C 142.25 51.550781 142.078125 51.578125 141.898438 51.550781 C 141.957031 51.292969 142.015625 51.035156 142.070312 50.777344 Z M 142.070312 50.777344 "/>
</g>
</svg>
