<?xml version="1.0" encoding="UTF-8"?>
<svg xmlns="http://www.w3.org/2000/svg" xmlns:xlink="http://www.w3.org/1999/xlink" width="144px" height="48px" viewBox="0 0 160 48" version="1.1">
<defs>
<filter id="alpha" filterUnits="objectBoundingBox" x="0%" y="0%" width="100%" height="100%">
  <feColorMatrix type="matrix" in="SourceGraphic" values="0 0 0 0 1 0 0 0 0 1 0 0 0 0 1 0 0 0 1 0"/>
</filter>
<mask id="mask0">
  <g filter="url(#alpha)">
<rect x="0" y="0" width="160" height="48" style="fill:rgb(0%,0%,0%);fill-opacity:0.988235;stroke:none;"/>
  </g>
</mask>
<clipPath id="clip1">
  <rect x="0" y="0" width="160" height="48"/>
</clipPath>
<g id="surface5" clip-path="url(#clip1)">
<path style=" stroke:none;fill-rule:evenodd;fill:rgb(99.607843%,100%,99.607843%);fill-opacity:1;" d="M 137.832031 -0.0351562 C 139.679688 -0.0351562 141.523438 -0.0351562 143.367188 -0.0351562 C 143.367188 6.328125 143.367188 12.6875 143.367188 19.046875 C 146.828125 19.167969 149.304688 17.671875 150.800781 14.5625 C 151.175781 13.640625 151.363281 12.679688 151.367188 11.683594 C 153.210938 11.683594 155.054688 11.683594 156.898438 11.683594 C 156.757812 16.632812 154.601562 20.402344 150.433594 22.996094 C 153.613281 27.328125 156.789062 31.660156 159.964844 35.984375 C 159.964844 36.027344 159.964844 36.074219 159.964844 36.117188 C 157.742188 36.140625 155.523438 36.117188 153.300781 36.050781 C 150.625 32.390625 147.933594 28.742188 145.234375 25.105469 C 144.671875 24.714844 144.050781 24.550781 143.367188 24.601562 C 143.367188 28.441406 143.367188 32.277344 143.367188 36.117188 C 141.523438 36.117188 139.679688 36.117188 137.832031 36.117188 C 137.832031 24.066406 137.832031 12.015625 137.832031 -0.0351562 Z M 137.832031 -0.0351562 "/>
</g>
<mask id="mask1">
  <g filter="url(#alpha)">
<rect x="0" y="0" width="160" height="48" style="fill:rgb(0%,0%,0%);fill-opacity:0.988235;stroke:none;"/>
  </g>
</mask>
<clipPath id="clip2">
  <rect x="0" y="0" width="160" height="48"/>
</clipPath>
<g id="surface8" clip-path="url(#clip2)">
<path style=" stroke:none;fill-rule:evenodd;fill:rgb(99.607843%,100%,99.607843%);fill-opacity:1;" d="M -0.0351562 7.398438 C 2.144531 7.398438 4.320312 7.398438 6.5 7.398438 C 6.488281 13.199219 6.5 19 6.535156 24.804688 C 6.964844 27.691406 8.597656 29.46875 11.433594 30.125 C 14.484375 30.453125 16.671875 29.234375 18 26.476562 C 18.195312 25.957031 18.328125 25.421875 18.398438 24.871094 C 18.433594 19.046875 18.445312 13.222656 18.433594 7.398438 C 20.609375 7.398438 22.789062 7.398438 24.964844 7.398438 C 26.378906 12.308594 28.457031 16.90625 31.199219 21.1875 C 31.902344 18.996094 32.96875 17.007812 34.398438 15.230469 C 37.644531 11.695312 41.632812 10.371094 46.367188 11.246094 C 50.910156 12.328125 54.054688 15.039062 55.800781 19.378906 C 57.371094 24.183594 56.570312 28.535156 53.398438 32.433594 C 49.875 36.136719 45.597656 37.484375 40.566406 36.484375 C 38.621094 36.058594 36.808594 35.3125 35.132812 34.242188 C 34.144531 38.695312 33.179688 43.160156 32.234375 47.632812 C 30.011719 47.722656 27.789062 47.722656 25.566406 47.632812 C 26.882812 41.464844 28.195312 35.292969 29.5 29.121094 C 27.792969 26.800781 26.292969 24.332031 25 21.722656 C 24.984375 23.019531 24.941406 24.3125 24.867188 25.605469 C 24.1875 30.375 21.6875 33.777344 17.367188 35.816406 C 12.464844 37.667969 8.019531 36.910156 4.035156 33.539062 C 1.414062 31.007812 0.0585938 27.917969 -0.0351562 24.269531 C -0.0351562 18.644531 -0.0351562 13.019531 -0.0351562 7.398438 Z M 43.433594 17.507812 C 45.867188 17.515625 47.765625 18.519531 49.132812 20.519531 C 50.523438 23.039062 50.390625 25.472656 48.734375 27.816406 C 46.90625 29.898438 44.628906 30.648438 41.898438 30.058594 C 39.933594 29.597656 38.179688 28.726562 36.632812 27.449219 C 36.835938 25.824219 37.171875 24.21875 37.632812 22.628906 C 38.183594 20.847656 39.207031 19.421875 40.699219 18.34375 C 41.554688 17.851562 42.46875 17.574219 43.433594 17.507812 Z M 43.433594 17.507812 "/>
</g>
<mask id="mask2">
  <g filter="url(#alpha)">
<rect x="0" y="0" width="160" height="48" style="fill:rgb(0%,0%,0%);fill-opacity:0.984314;stroke:none;"/>
  </g>
</mask>
<clipPath id="clip3">
  <rect x="0" y="0" width="160" height="48"/>
</clipPath>
<g id="surface11" clip-path="url(#clip3)">
<path style=" stroke:none;fill-rule:evenodd;fill:rgb(99.607843%,100%,99.607843%);fill-opacity:1;" d="M 102.234375 11.011719 C 106.71875 10.738281 110.441406 12.277344 113.398438 15.632812 C 116.199219 19.234375 116.996094 23.253906 115.800781 27.683594 C 114.394531 31.925781 111.585938 34.773438 107.367188 36.21875 C 102.128906 37.621094 97.628906 36.382812 93.867188 32.503906 C 90.828125 28.828125 89.941406 24.675781 91.199219 20.050781 C 93.070312 14.8125 96.75 11.800781 102.234375 11.011719 Z M 102.765625 16.367188 C 106.03125 16.25 108.484375 17.589844 110.132812 20.386719 C 111.671875 23.855469 111.105469 26.921875 108.433594 29.589844 C 105.734375 31.714844 102.84375 32.003906 99.765625 30.460938 C 96.535156 28.332031 95.390625 25.375 96.332031 21.589844 C 97.476562 18.597656 99.621094 16.859375 102.765625 16.367188 Z M 102.765625 16.367188 "/>
</g>
<mask id="mask3">
  <g filter="url(#alpha)">
<rect x="0" y="0" width="160" height="48" style="fill:rgb(0%,0%,0%);fill-opacity:0.984314;stroke:none;"/>
  </g>
</mask>
<clipPath id="clip4">
  <rect x="0" y="0" width="160" height="48"/>
</clipPath>
<g id="surface14" clip-path="url(#clip4)">
<path style=" stroke:none;fill-rule:evenodd;fill:rgb(99.607843%,100%,99.607843%);fill-opacity:1;" d="M 56.765625 11.683594 C 58.609375 11.683594 60.457031 11.683594 62.300781 11.683594 C 63.769531 17.226562 65.28125 22.761719 66.832031 28.285156 C 68.222656 22.777344 69.597656 17.265625 70.964844 11.75 C 72.722656 11.671875 74.476562 11.660156 76.234375 11.714844 C 77.625 17.28125 79.015625 22.847656 80.398438 28.417969 C 81.910156 22.863281 83.410156 17.308594 84.898438 11.75 C 86.746094 11.75 88.589844 11.75 90.433594 11.75 C 88.101562 19.871094 85.765625 27.996094 83.433594 36.117188 C 81.589844 36.140625 79.742188 36.117188 77.898438 36.050781 C 76.464844 30.472656 75.035156 24.894531 73.601562 19.3125 C 72.179688 24.894531 70.753906 30.472656 69.332031 36.050781 C 67.503906 36.128906 65.671875 36.140625 63.832031 36.082031 C 61.445312 27.960938 59.089844 19.828125 56.765625 11.683594 Z M 56.765625 11.683594 "/>
</g>
<mask id="mask4">
  <g filter="url(#alpha)">
<rect x="0" y="0" width="160" height="48" style="fill:rgb(0%,0%,0%);fill-opacity:0.988235;stroke:none;"/>
  </g>
</mask>
<clipPath id="clip5">
  <rect x="0" y="0" width="160" height="48"/>
</clipPath>
<g id="surface17" clip-path="url(#clip5)">
<path style=" stroke:none;fill-rule:evenodd;fill:rgb(99.607843%,100%,99.607843%);fill-opacity:1;" d="M 132.035156 11.683594 C 132.746094 11.683594 133.457031 11.683594 134.167969 11.683594 C 134.167969 13.535156 134.167969 15.386719 134.167969 17.238281 C 133.167969 17.226562 132.167969 17.238281 131.167969 17.273438 C 128.328125 17.722656 126.460938 19.320312 125.566406 22.058594 C 125.449219 22.476562 125.371094 22.898438 125.332031 23.332031 C 125.300781 27.59375 125.289062 31.855469 125.300781 36.117188 C 123.457031 36.117188 121.613281 36.117188 119.765625 36.117188 C 119.765625 27.996094 119.765625 19.871094 119.765625 11.75 C 121.613281 11.75 123.457031 11.75 125.300781 11.75 C 125.289062 12.953125 125.300781 14.160156 125.332031 15.363281 C 127.015625 13.128906 129.246094 11.902344 132.035156 11.683594 Z M 132.035156 11.683594 "/>
</g>
</defs>
<g id="surface1">
<use xlink:href="#surface5" mask="url(#mask0)"/>
<use xlink:href="#surface8" mask="url(#mask1)"/>
<use xlink:href="#surface11" mask="url(#mask2)"/>
<use xlink:href="#surface14" mask="url(#mask3)"/>
<use xlink:href="#surface17" mask="url(#mask4)"/>
</g>
</svg>
