<svg width="157" height="29" viewBox="0 0 157 29" fill="none" xmlns="http://www.w3.org/2000/svg">
<path d="M36.5359 17.3H46.5001V22.9H35.4287L36.5359 17.3Z" fill="#FFFEFE"/>
<path d="M38.7502 6.1001H46.5002V11.7001H37.6431L38.7502 6.1001Z" fill="#FFFEFE"/>
<path d="M5.53573 0.5H1.33514e-05L5.53573 28.5H11.0714L5.53573 0.5Z" fill="#FFFEFE"/>
<path d="M14.3929 0.5H19.9286L14.3929 28.5H8.85715L14.3929 0.5Z" fill="#FFFEFE"/>
<path d="M28.7857 0.5H34.3214L28.7857 28.5H23.25L28.7857 0.5Z" fill="#FFFEFE"/>
<path d="M19.9286 0.5H14.3929L19.9286 28.5H25.4643L19.9286 0.5Z" fill="#FFFEFE"/>
<path d="M62 8.90002C61.9987 10.6013 61.4909 12.262 60.5437 13.6629C59.5965 15.0639 58.2545 16.139 56.695 16.7463C55.1355 17.3535 53.4319 17.4643 51.8093 17.064C50.1867 16.6637 48.7214 15.7712 47.6071 14.5043V11.7022H53.7504C54.4797 11.7022 55.1791 11.4069 55.6948 10.8814C56.2105 10.3559 56.5003 9.6432 56.5003 8.90002C56.5003 8.15685 56.2105 7.44411 55.6948 6.91861C55.1791 6.3931 54.4797 6.09787 53.7504 6.09787H47.6071V3.29571C48.7214 2.02887 50.1867 1.1363 51.8093 0.736012C53.4319 0.335725 55.1355 0.446541 56.695 1.05379C58.2545 1.66103 59.5965 2.73612 60.5437 4.13705C61.4909 5.53797 61.9987 7.1988 62 8.90002Z" fill="#FFFEFE"/>
<path d="M61.9998 20.1002C61.9985 21.8014 61.4907 23.4622 60.5435 24.8631C59.5963 26.264 58.2543 27.3392 56.6948 27.9465C55.1353 28.5537 53.4317 28.6644 51.8091 28.2642C50.1865 27.8639 48.7212 26.9714 47.6069 25.7045V22.9024H53.7502C54.4795 22.9024 55.1789 22.6071 55.6946 22.0816C56.2103 21.5561 56.5 20.8434 56.5 20.1002C56.5 19.357 56.2103 18.6443 55.6946 18.1188C55.1789 17.5933 54.4795 17.2981 53.7502 17.2981H47.6069V14.4959C48.7212 13.2291 50.1865 12.3365 51.8091 11.9362C53.4317 11.5359 55.1353 11.6467 56.6948 12.254C58.2543 12.8612 59.5963 13.9363 60.5435 15.3372C61.4907 16.7382 61.9985 18.399 61.9998 20.1002Z" fill="#FFFEFE"/>
<path d="M53.6964 0.5H46.5V6.1H53.6964V0.5Z" fill="#FFFEFE"/>
<path d="M53.6964 11.7002H46.5V17.3002H53.6964V11.7002Z" fill="#FFFEFE"/>
<path d="M53.6964 22.8999H46.5V28.4999H53.6964V22.8999Z" fill="#FFFEFE"/>
<path d="M67.6974 25.3448V20.4972C67.6974 19.9845 67.8287 19.6072 68.0911 19.3652C68.3535 19.1233 68.7388 19.0023 69.2469 19.0023H69.7997V19.6936H69.1129C68.9063 19.6936 68.7472 19.7541 68.6355 19.875C68.5238 19.9902 68.468 20.1515 68.468 20.3589V25.3448H67.6974ZM67.0776 21.4045V20.7823H69.8835V21.4045H67.0776Z" fill="#FFFEFE"/>
<path d="M77.6393 25.5003C77.2485 25.5003 76.9051 25.4312 76.6091 25.2929C76.3132 25.1547 76.0619 24.9732 75.8553 24.7485C75.6543 24.5181 75.5007 24.2618 75.3947 23.9795C75.2941 23.6972 75.2439 23.4092 75.2439 23.1154V22.9599C75.2439 22.6661 75.2969 22.378 75.403 22.0958C75.5091 21.8077 75.6655 21.5514 75.8721 21.3267C76.0787 21.0963 76.3299 20.9148 76.6259 20.7823C76.9218 20.6441 77.2596 20.5749 77.6393 20.5749C78.019 20.5749 78.3568 20.6441 78.6528 20.7823C78.9487 20.9148 79.2 21.0963 79.4066 21.3267C79.6132 21.5514 79.7695 21.8077 79.8756 22.0958C79.9817 22.378 80.0348 22.6661 80.0348 22.9599V23.1154C80.0348 23.4092 79.9817 23.6972 79.8756 23.9795C79.7751 24.2618 79.6216 24.5181 79.415 24.7485C79.214 24.9732 78.9655 25.1547 78.6695 25.2929C78.3736 25.4312 78.0302 25.5003 77.6393 25.5003ZM77.6393 24.7572C77.9744 24.7572 78.2591 24.6823 78.4936 24.5325C78.7337 24.377 78.9152 24.1696 79.0381 23.9104C79.1665 23.6511 79.2307 23.3602 79.2307 23.0376C79.2307 22.7093 79.1665 22.4155 79.0381 22.1562C78.9096 21.897 78.7254 21.6925 78.4853 21.5427C78.2508 21.393 77.9688 21.3181 77.6393 21.3181C77.3155 21.3181 77.0335 21.393 76.7934 21.5427C76.5533 21.6925 76.369 21.897 76.2406 22.1562C76.1122 22.4155 76.048 22.7093 76.048 23.0376C76.048 23.3602 76.1094 23.6511 76.2322 23.9104C76.3606 24.1696 76.5421 24.377 76.7766 24.5325C77.0167 24.6823 77.3043 24.7572 77.6393 24.7572Z" fill="#FFFEFE"/>
<path d="M87.6464 25.483C87.1159 25.483 86.7083 25.3045 86.4236 24.9473C86.1388 24.5901 85.9964 24.0746 85.9964 23.4006V20.7218H86.8005V23.5647C86.8005 23.9277 86.8954 24.2128 87.0852 24.4202C87.2751 24.6218 87.5319 24.7226 87.8558 24.7226C88.1908 24.7226 88.4644 24.6132 88.6766 24.3943C88.8888 24.1696 88.9949 23.8643 88.9949 23.4783V20.7218H89.7989V25.3448H89.1624V23.366H89.2629C89.2629 23.8211 89.2043 24.207 89.087 24.5239C88.9698 24.835 88.7939 25.074 88.5593 25.2411C88.3304 25.4024 88.0373 25.483 87.6799 25.483H87.6464Z" fill="#FFFEFE"/>
<path d="M96.2141 25.3448V20.7305H96.8506V22.7093H96.7501C96.7501 22.2542 96.8088 21.8711 96.926 21.56C97.0489 21.2432 97.2331 21.0041 97.4788 20.8428C97.7245 20.6758 98.0344 20.5922 98.4085 20.5922H98.442C99.006 20.5922 99.422 20.7737 99.69 21.1366C99.9636 21.4995 100.1 22.0238 100.1 22.7093V25.3448H99.2963V22.5365C99.2963 22.1793 99.1986 21.8941 99.0032 21.681C98.8078 21.4621 98.5397 21.3526 98.1991 21.3526C97.8474 21.3526 97.5626 21.465 97.3448 21.6896C97.127 21.9143 97.0182 22.2139 97.0182 22.5883V25.3448H96.2141Z" fill="#FFFEFE"/>
<path d="M108.297 25.5003C107.979 25.5003 107.686 25.4398 107.418 25.3189C107.15 25.1979 106.915 25.0279 106.714 24.809C106.519 24.5901 106.365 24.3367 106.254 24.0486C106.147 23.7606 106.094 23.4495 106.094 23.1154V22.9599C106.094 22.6315 106.147 22.3233 106.254 22.0353C106.36 21.7472 106.508 21.4938 106.697 21.2749C106.893 21.056 107.122 20.886 107.384 20.765C107.652 20.6383 107.948 20.5749 108.272 20.5749C108.613 20.5749 108.923 20.6498 109.202 20.7996C109.481 20.9436 109.71 21.1712 109.889 21.4823C110.067 21.7933 110.168 22.1966 110.19 22.692L109.855 22.139V19.0368H110.659V25.3448H110.023V23.2969H110.257C110.235 23.8211 110.129 24.2474 109.939 24.5757C109.749 24.8983 109.509 25.1345 109.219 25.2843C108.934 25.4283 108.627 25.5003 108.297 25.5003ZM108.406 24.7745C108.68 24.7745 108.928 24.7111 109.152 24.5844C109.375 24.4576 109.554 24.2762 109.688 24.04C109.822 23.798 109.889 23.5158 109.889 23.1932V22.7957C109.889 22.4788 109.819 22.211 109.679 21.9921C109.545 21.7674 109.364 21.5975 109.135 21.4823C108.911 21.3613 108.666 21.3008 108.398 21.3008C108.102 21.3008 107.839 21.3728 107.61 21.5168C107.387 21.6608 107.211 21.8625 107.083 22.1217C106.96 22.3809 106.898 22.6862 106.898 23.0376C106.898 23.389 106.963 23.6972 107.091 23.9622C107.22 24.2214 107.398 24.4231 107.627 24.5671C107.856 24.7053 108.116 24.7745 108.406 24.7745Z" fill="#FFFEFE"/>
<path d="M119.767 25.3448V23.9622H119.633V22.3636C119.633 22.0468 119.552 21.8077 119.39 21.6464C119.234 21.4851 119.002 21.4045 118.695 21.4045C118.522 21.4045 118.343 21.4074 118.159 21.4131C117.975 21.4189 117.799 21.4246 117.631 21.4304C117.464 21.4362 117.319 21.4448 117.196 21.4563V20.7305C117.319 20.719 117.447 20.7103 117.581 20.7046C117.721 20.693 117.863 20.6873 118.008 20.6873C118.154 20.6815 118.293 20.6786 118.427 20.6786C118.885 20.6786 119.259 20.7362 119.55 20.8515C119.84 20.9609 120.055 21.1424 120.194 21.3958C120.334 21.6493 120.404 21.9921 120.404 22.4241V25.3448H119.767ZM118.302 25.4658C117.967 25.4658 117.676 25.4081 117.43 25.2929C117.19 25.172 117.003 24.9991 116.869 24.7745C116.741 24.5498 116.677 24.2791 116.677 23.9622C116.677 23.6339 116.746 23.3602 116.886 23.1413C117.031 22.9224 117.241 22.7582 117.514 22.6488C117.788 22.5336 118.117 22.476 118.503 22.476H119.717V23.0981H118.469C118.145 23.0981 117.897 23.1788 117.724 23.3401C117.551 23.5014 117.464 23.7087 117.464 23.9622C117.464 24.2157 117.551 24.4202 117.724 24.5757C117.897 24.7313 118.145 24.809 118.469 24.809C118.659 24.809 118.84 24.7745 119.013 24.7053C119.187 24.6305 119.329 24.5095 119.441 24.3424C119.558 24.1696 119.622 23.9334 119.633 23.6339L119.851 23.9622C119.823 24.2906 119.745 24.5671 119.617 24.7918C119.494 25.0107 119.321 25.1777 119.097 25.2929C118.879 25.4081 118.614 25.4658 118.302 25.4658Z" fill="#FFFEFE"/>
<path d="M128.48 25.3966C128.145 25.3966 127.854 25.3477 127.609 25.2497C127.368 25.1518 127.181 24.9847 127.047 24.7485C126.919 24.5066 126.855 24.1811 126.855 23.7721V19.3306H127.625V23.8758C127.625 24.1235 127.689 24.3165 127.818 24.4548C127.952 24.5873 128.139 24.6535 128.379 24.6535H129.166V25.3966H128.48ZM126.084 21.3526V20.7305H129.166V21.3526H126.084Z" fill="#FFFEFE"/>
<path d="M135.379 25.3448V20.7305H136.183V25.3448H135.379ZM134.692 21.3872V20.7305H136.183V21.3872H134.692ZM135.605 19.9874C135.427 19.9874 135.293 19.9384 135.203 19.8405C135.12 19.7425 135.078 19.6187 135.078 19.4689C135.078 19.3191 135.12 19.1953 135.203 19.0973C135.293 18.9994 135.427 18.9504 135.605 18.9504C135.784 18.9504 135.915 18.9994 135.999 19.0973C136.088 19.1953 136.133 19.3191 136.133 19.4689C136.133 19.6187 136.088 19.7425 135.999 19.8405C135.915 19.9384 135.784 19.9874 135.605 19.9874Z" fill="#FFFEFE"/>
<path d="M144.656 25.5003C144.265 25.5003 143.922 25.4312 143.626 25.2929C143.33 25.1547 143.079 24.9732 142.872 24.7485C142.671 24.5181 142.518 24.2618 142.412 23.9795C142.311 23.6972 142.261 23.4092 142.261 23.1154V22.9599C142.261 22.6661 142.314 22.378 142.42 22.0958C142.526 21.8077 142.682 21.5514 142.889 21.3267C143.096 21.0963 143.347 20.9148 143.643 20.7823C143.939 20.6441 144.277 20.5749 144.656 20.5749C145.036 20.5749 145.374 20.6441 145.67 20.7823C145.966 20.9148 146.217 21.0963 146.424 21.3267C146.63 21.5514 146.787 21.8077 146.893 22.0958C146.999 22.378 147.052 22.6661 147.052 22.9599V23.1154C147.052 23.4092 146.999 23.6972 146.893 23.9795C146.792 24.2618 146.639 24.5181 146.432 24.7485C146.231 24.9732 145.982 25.1547 145.687 25.2929C145.391 25.4312 145.047 25.5003 144.656 25.5003ZM144.656 24.7572C144.991 24.7572 145.276 24.6823 145.511 24.5325C145.751 24.377 145.932 24.1696 146.055 23.9104C146.183 23.6511 146.248 23.3602 146.248 23.0376C146.248 22.7093 146.183 22.4155 146.055 22.1562C145.927 21.897 145.742 21.6925 145.502 21.5427C145.268 21.393 144.986 21.3181 144.656 21.3181C144.332 21.3181 144.05 21.393 143.81 21.5427C143.57 21.6925 143.386 21.897 143.258 22.1562C143.129 22.4155 143.065 22.7093 143.065 23.0376C143.065 23.3602 143.126 23.6511 143.249 23.9104C143.378 24.1696 143.559 24.377 143.794 24.5325C144.034 24.6823 144.321 24.7572 144.656 24.7572Z" fill="#FFFEFE"/>
<path d="M153.114 25.3448V20.7305H153.75V22.7093H153.65C153.65 22.2542 153.709 21.8711 153.826 21.56C153.949 21.2432 154.133 21.0041 154.379 20.8428C154.624 20.6758 154.934 20.5922 155.308 20.5922H155.342C155.906 20.5922 156.322 20.7737 156.59 21.1366C156.863 21.4995 157 22.0238 157 22.7093V25.3448H156.196V22.5365C156.196 22.1793 156.098 21.8941 155.903 21.681C155.708 21.4621 155.44 21.3526 155.099 21.3526C154.747 21.3526 154.462 21.465 154.245 21.6896C154.027 21.9143 153.918 22.2139 153.918 22.5883V25.3448H153.114Z" fill="#FFFEFE"/>
<path d="M67 14.6296L70.5324 3.59073L74.4166 3.59073L78.081 14.6296H75.5892L72.6284 5.29949L73.3906 5.61705L71.4998 5.61705L72.2913 5.29949L69.4038 14.6296H67ZM69.6823 11.8926L70.4152 9.83601H74.6072L75.3547 11.8926H69.6823Z" fill="#FFFEFE"/>
<path d="M82.1151 14.6296V3.5H84.5189V14.6296H82.1151ZM88.6083 14.6296L85.4716 9.88138H88.11L91.3932 14.6296H88.6083ZM83.874 11.0911V9.14041H86.5123C86.8641 9.14041 87.167 9.06985 87.4211 8.92871C87.6849 8.77749 87.8852 8.57083 88.022 8.30872C88.1686 8.03653 88.2419 7.72401 88.2419 7.37117C88.2419 7.01833 88.1686 6.71085 88.022 6.44874C87.8852 6.17655 87.6849 5.96989 87.4211 5.82875C87.167 5.67753 86.8641 5.60192 86.5123 5.60192H83.874V3.5L86.3218 3.5C87.211 3.5 87.9829 3.64114 88.6376 3.92341C89.2923 4.1956 89.7956 4.60389 90.1473 5.14827C90.4991 5.69265 90.675 6.37817 90.675 7.20483V7.44678C90.675 8.26335 90.4942 8.94383 90.1327 9.48821C89.7809 10.0225 89.2777 10.4258 88.623 10.698C87.978 10.9601 87.211 11.0911 86.3218 11.0911H83.874Z" fill="#FFFEFE"/>
<path d="M95.4602 14.6296V3.59073H98.7728L101.221 9.79065H101.499L103.917 3.59073H107.289V14.6296H104.914V5.20876L105.251 5.239L102.422 12.3916H100.136L97.2924 5.239L97.6588 5.20876V14.6296H95.4602Z" fill="#FFFEFE"/>
<path d="M112.326 14.6296V3.59073H114.672V14.6296H112.326ZM114.379 14.6296V12.5731H119.054V14.6296H114.379ZM114.379 10.0477V7.99116H118.717V10.0477H114.379ZM114.379 5.64729V3.59073L118.952 3.59073V5.64729H114.379Z" fill="#FFFEFE"/>
<path d="M123.668 14.6296V3.59073L127.61 3.59073L131.641 12.6184H132.14L131.846 12.8906V3.59073L134.104 3.59073V14.6296H130.132L126.101 5.60192H125.602L125.896 5.32973V14.6296H123.668Z" fill="#FFFEFE"/>
<path d="M139.175 14.6296V3.59073L141.579 3.59073V14.6296H139.175Z" fill="#FFFEFE"/>
<path d="M145.639 14.6296L149.172 3.59073L153.056 3.59073L156.72 14.6296H154.228L151.268 5.29949L152.03 5.61705H150.139L150.93 5.29949L148.043 14.6296H145.639ZM148.321 11.8926L149.054 9.83601H153.246L153.994 11.8926H148.321Z" fill="#FFFEFE"/>
</svg>
